<svg width="16" height="16" viewBox="0 0 16 16" fill="none" xmlns="http://www.w3.org/2000/svg">
<rect width="16" height="16" fill="white"/>
<path fill-rule="evenodd" clip-rule="evenodd" d="M7.57143 3.28571V2H8.42857V3.28571H7.57143ZM9.98602 3.70306L10.6289 2.5896L11.3712 3.01817L10.7283 4.13163L9.98602 3.70306ZM8 11C9.65685 11 11 9.65685 11 8C11 6.34315 9.65685 5 8 5C6.34315 5 5 6.34315 5 8C5 9.65685 6.34315 11 8 11ZM8 11.8571C10.1302 11.8571 11.8571 10.1302 11.8571 8C11.8571 5.86976 10.1302 4.14286 8 4.14286C5.86976 4.14286 4.14286 5.86976 4.14286 8C4.14286 10.1302 5.86976 11.8571 8 11.8571ZM12.7143 7.57143H14V8.42857H12.7143V7.57143ZM12.9819 4.62885L11.8684 5.2717L12.297 6.01401L13.4104 5.37115L12.9819 4.62885ZM4.62885 3.01817L5.2717 4.13163L6.01401 3.70306L5.37115 2.5896L4.62885 3.01817ZM3.70303 6.01401L2.58957 5.37115L3.01814 4.62885L4.13161 5.2717L3.70303 6.01401ZM7.57143 12.7143V14H8.42857V12.7143H7.57143ZM3.28571 7.57143H2V8.42857H3.28571V7.57143ZM2.58955 10.6288L3.70301 9.98599L4.13158 10.7283L3.01812 11.3712L2.58955 10.6288ZM5.27173 11.8684L4.62887 12.9819L5.37118 13.4105L6.01404 12.297L5.27173 11.8684ZM10.6288 13.4105L9.98599 12.297L10.7283 11.8684L11.3712 12.9819L10.6288 13.4105ZM11.8684 10.7283L12.9819 11.3712L13.4104 10.6288L12.297 9.98599L11.8684 10.7283Z" fill="#2F2F2F"/>
</svg>
