<svg width="28" height="28" viewBox="0 0 28 28" fill="none" xmlns="http://www.w3.org/2000/svg">
<path d="M13.0015 11H16V17.875H13.0015V11ZM13 19.25H15.9985V22H13V19.25Z" fill="#F0F0F0"/>
<path d="M17.0548 2.54585C16.5518 1.59243 15.572 1 14.4996 1C13.4272 1 12.4474 1.59243 11.9444 2.54731L1.3393 22.7263C1.10397 23.1694 0.987394 23.6667 1.00108 24.1691C1.01477 24.6714 1.15824 25.1615 1.41734 25.5909C1.67271 26.0224 2.03538 26.3792 2.46954 26.6263C2.9037 26.8734 3.39434 27.0022 3.89303 27H25.1062C26.1294 27 27.0558 26.473 27.5833 25.5909C27.842 25.1613 27.9852 24.6713 27.9989 24.169C28.0126 23.6668 27.8963 23.1696 27.6614 22.7263L17.0548 2.54585ZM3.89303 24.0888L14.4996 3.90975L25.1134 24.0888H3.89303Z" fill="#F0F0F0"/>
</svg>
