<svg width="25" height="24" viewBox="0 0 25 24" fill="none" xmlns="http://www.w3.org/2000/svg">
<path fill-rule="evenodd" clip-rule="evenodd" d="M9.9988 12.0012L4.88534 14.992L0.83205 13.1314L0 14.9618L2.76613 16.2315L1.24461 17.1214L2.2349 18.859L3.75617 17.9693L3.4586 21.0305L5.43932 21.2156L5.87537 16.7298L10.9912 13.7376V19.7528L7.37132 22.3801L8.5461 23.9988L10.9912 22.2241V24H12.9912V22.224L15.4365 23.9988L16.6113 22.3801L12.9912 19.7527V13.7514L18.1185 16.7503L18.5546 21.2367L20.5353 21.0515L20.2377 17.9898L21.7593 18.8798L22.7496 17.1422L21.2283 16.2523L23.994 14.9828L23.1619 13.1525L19.109 15.0128L13.96 12.0012L19.0932 8.99883L23.1728 10.8715L24.0049 9.04117L21.2124 7.75934L22.7516 6.85905L21.7613 5.12142L20.2515 6.0045L20.5462 2.97248L18.5655 2.78729L18.1323 7.244L12.9912 10.251V4.26755L16.6345 1.62327L15.4598 0.00465947L12.9912 1.79629V0H10.9912V1.76246L8.56935 0.00465947L7.39457 1.62327L10.9912 4.23371V10.2648L5.89108 7.28181L5.45217 2.7665L3.47146 2.95168L3.77188 6.04231L2.23289 5.14217L1.2426 6.8798L2.75238 7.76285L0.0128517 9.02038L0.844902 10.8507L4.87158 9.00235L9.9988 12.0012Z" fill="#F0F0F0"/>
</svg>
